<?xml version="1.0" encoding="UTF-8"?>
<svg id="_图层_1" xmlns="http://www.w3.org/2000/svg" version="1.1" viewBox="0 0 639.25 561">
  <!-- Generator: Adobe Illustrator 29.6.0, SVG Export Plug-In . SVG Version: 2.1.1 Build 207)  -->
  <defs>
    <style>
      .st0 {
        stroke: #000;
      }

      .st0, .st1, .st2, .st3 {
        fill: none;
      }

      .st4 {
        fill: #fff;
      }

      .st5 {
        fill: #f0f0f0;
      }

      .st6, .st7 {
        fill: #f57c6e;
      }

      .st7, .st2, .st8, .st9 {
        stroke: #595959;
      }

      .st10, .st8 {
        fill: #84c3b7;
      }

      .st11 {
        font-size: 6.38px;
      }

      .st11, .st12, .st13, .st14 {
        isolation: isolate;
      }

      .st11, .st13, .st14 {
        font-family: Verdana, Verdana;
      }

      .st1 {
        stroke: #007000;
      }

      .st13 {
        fill: #404040;
      }

      .st13, .st14 {
        font-size: 6.06px;
      }

      .st15 {
        fill: #fae69e;
      }

      .st9, .st16 {
        fill: #71b7ed;
      }

      .st3 {
        stroke: #404040;
      }
    </style>
  </defs>
  <line class="st2" x1="302.37" y1="502.73" x2="301.77" y2="490.29"/>
  <line class="st2" x1="301.26" y1="478.19" x2="300.75" y2="465.76"/>
  <line class="st2" x1="300.24" y1="453.66" x2="299.73" y2="441.31"/>
  <line class="st2" x1="299.22" y1="429.21" x2="298.62" y2="416.78"/>
  <line class="st2" x1="298.11" y1="404.68" x2="297.6" y2="392.24"/>
  <line class="st2" x1="297.09" y1="380.15" x2="296.57" y2="367.71"/>
  <line class="st2" x1="295.98" y1="355.61" x2="295.47" y2="343.26"/>
  <line class="st2" x1="294.96" y1="331.17" x2="294.44" y2="318.73"/>
  <line class="st2" x1="289.5" y1="316.6" x2="267.53" y2="335.17"/>
  <line class="st2" x1="257.39" y1="336.62" x2="230.98" y2="325.12"/>
  <line class="st2" x1="225.19" y1="316.69" x2="223.83" y2="287.89"/>
  <line class="st2" x1="228.85" y1="278.95" x2="254.07" y2="265.07"/>
  <line class="st2" x1="253.81" y1="259.7" x2="242.48" y2="254.84"/>
  <line class="st2" x1="231.32" y1="249.99" x2="219.91" y2="245.05"/>
  <line class="st2" x1="208.84" y1="240.19" x2="197.42" y2="235.34"/>
  <line class="st2" x1="186.35" y1="230.48" x2="174.93" y2="225.54"/>
  <line class="st2" x1="163.77" y1="220.69" x2="152.45" y2="215.83"/>
  <line class="st2" x1="141.54" y1="216.34" x2="125.87" y2="225.03"/>
  <line class="st2" x1="114.54" y1="227.67" x2="96.65" y2="226.82"/>
  <line class="st2" x1="85.58" y1="223.07" x2="70.75" y2="213.02"/>
  <line class="st2" x1="63.34" y1="204.07" x2="56.02" y2="187.72"/>
  <line class="st2" x1="54.4" y1="176.13" x2="56.7" y2="158.42"/>
  <line class="st2" x1="61.38" y1="147.68" x2="72.71" y2="133.88"/>
  <line class="st2" x1="82.25" y1="127.15" x2="99.21" y2="121.28"/>
  <line class="st2" x1="110.79" y1="120.6" x2="128.25" y2="124.51"/>
  <line class="st2" x1="138.56" y1="130.05" x2="151.42" y2="142.57"/>
  <line class="st2" x1="157.22" y1="152.62" x2="161.64" y2="170"/>
  <line class="st2" x1="168.63" y1="178.26" x2="180.04" y2="183.2"/>
  <line class="st2" x1="191.2" y1="188.06" x2="202.53" y2="193"/>
  <line class="st2" x1="213.69" y1="197.77" x2="225.11" y2="202.71"/>
  <line class="st2" x1="236.18" y1="207.57" x2="247.59" y2="212.51"/>
  <line class="st2" x1="258.67" y1="217.28" x2="270.08" y2="222.22"/>
  <line class="st2" x1="271.62" y1="220.17" x2="252.28" y2="198.79"/>
  <line class="st2" x1="247.25" y1="188.32" x2="242.4" y2="159.95"/>
  <line class="st2" x1="243.76" y1="148.45" x2="254.92" y2="121.87"/>
  <line class="st2" x1="262.25" y1="112.84" x2="285.93" y2="96.49"/>
  <line class="st2" x1="297" y1="92.83" x2="325.71" y2="91.8"/>
  <line class="st2" x1="337.04" y1="94.61" x2="361.82" y2="109.18"/>
  <line class="st2" x1="369.83" y1="117.61" x2="382.95" y2="143.25"/>
  <line class="st2" x1="385.16" y1="154.67" x2="382.44" y2="183.29"/>
  <line class="st2" x1="378.18" y1="194.11" x2="360.55" y2="216.85"/>
  <line class="st2" x1="362.51" y1="219.66" x2="374.35" y2="215.74"/>
  <line class="st2" x1="385.85" y1="211.91" x2="397.6" y2="207.99"/>
  <line class="st2" x1="409.1" y1="204.16" x2="420.86" y2="200.16"/>
  <line class="st2" x1="432.36" y1="196.32" x2="444.11" y2="192.4"/>
  <line class="st2" x1="455.61" y1="188.57" x2="467.37" y2="184.65"/>
  <line class="st2" x1="475.88" y1="177.33" x2="484.23" y2="160.72"/>
  <line class="st2" x1="492.49" y1="152.79" x2="509.36" y2="145.04"/>
  <line class="st2" x1="520.69" y1="143.94" x2="538.75" y2="148.36"/>
  <line class="st2" x1="548.37" y1="154.58" x2="559.7" y2="169.23"/>
  <line class="st2" x1="563.37" y1="180.14" x2="563.11" y2="198.71"/>
  <line class="st2" x1="559.19" y1="209.44" x2="547.44" y2="223.84"/>
  <line class="st2" x1="537.73" y1="229.8" x2="519.58" y2="233.72"/>
  <line class="st2" x1="508.17" y1="232.36" x2="491.56" y2="224.18"/>
  <line class="st2" x1="480.31" y1="223.41" x2="468.56" y2="227.33"/>
  <line class="st2" x1="457.06" y1="231.16" x2="445.3" y2="235.08"/>
  <line class="st2" x1="433.8" y1="239" x2="422.05" y2="242.92"/>
  <line class="st2" x1="410.55" y1="246.75" x2="398.79" y2="250.67"/>
  <line class="st2" x1="387.29" y1="254.5" x2="375.54" y2="258.51"/>
  <line class="st2" x1="373.75" y1="264.98" x2="392.66" y2="286.7"/>
  <line class="st2" x1="393.17" y1="296.24" x2="376.82" y2="319.92"/>
  <line class="st2" x1="367.7" y1="322.82" x2="340.7" y2="313.02"/>
  <line class="st2" x1="335.25" y1="316.94" x2="335.84" y2="329.38"/>
  <line class="st2" x1="336.35" y1="341.47" x2="336.87" y2="353.91"/>
  <line class="st2" x1="337.38" y1="366.01" x2="337.89" y2="378.36"/>
  <line class="st2" x1="338.4" y1="390.54" x2="339" y2="402.89"/>
  <line class="st2" x1="339.51" y1="414.99" x2="340.02" y2="427.42"/>
  <line class="st2" x1="340.53" y1="439.52" x2="341.13" y2="451.96"/>
  <line class="st2" x1="341.64" y1="464.05" x2="342.15" y2="476.4"/>
  <line class="st2" x1="342.66" y1="488.58" x2="343.17" y2="500.94"/>
  <circle class="st15" cx="302.62" cy="508.77" r="6.05"/>
  <circle class="st2" cx="302.62" cy="508.77" r="6.05"/>
  <g class="st12">
    <text class="st14" transform="translate(300.22 511.18)"><tspan x="0" y="0">C</tspan></text>
  </g>
  <circle class="st10" cx="301.52" cy="484.24" r="6.05"/>
  <circle class="st2" cx="301.52" cy="484.24" r="6.05"/>
  <g class="st12">
    <text class="st14" transform="translate(299.2 486.67)"><tspan x="0" y="0">G</tspan></text>
  </g>
  <circle class="st15" cx="300.49" cy="459.71" r="6.05"/>
  <circle class="st2" cx="300.49" cy="459.71" r="6.05"/>
  <g class="st12">
    <text class="st14" transform="translate(298.38 462.16)"><tspan x="0" y="0">C</tspan></text>
  </g>
  <circle class="st16" cx="299.47" cy="435.26" r="6.05"/>
  <circle class="st2" cx="299.47" cy="435.26" r="6.05"/>
  <g class="st12">
    <text class="st14" transform="translate(297.22 437.65)"><tspan x="0" y="0">U</tspan></text>
  </g>
  <circle class="st16" cx="298.36" cy="410.73" r="6.05"/>
  <circle class="st2" cx="298.36" cy="410.73" r="6.05"/>
  <g class="st12">
    <text class="st14" transform="translate(296.17 413.14)"><tspan x="0" y="0">U</tspan></text>
  </g>
  <circle class="st15" cx="297.34" cy="386.2" r="6.05"/>
  <circle class="st2" cx="297.34" cy="386.2" r="6.05"/>
  <g class="st12">
    <text class="st14" transform="translate(295.21 388.63)"><tspan x="0" y="0">C</tspan></text>
  </g>
  <circle class="st6" cx="296.23" cy="361.66" r="6.05"/>
  <circle class="st2" cx="296.23" cy="361.66" r="6.05"/>
  <g class="st12">
    <text class="st14" transform="translate(294.2 364.12)"><tspan x="0" y="0">A</tspan></text>
  </g>
  <circle class="st16" cx="295.21" cy="337.22" r="6.05"/>
  <circle class="st2" cx="295.21" cy="337.22" r="6.05"/>
  <g class="st12">
    <text class="st14" transform="translate(293 339.61)"><tspan x="0" y="0">U</tspan></text>
  </g>
  <circle class="st6" cx="294.19" cy="312.68" r="6.05"/>
  <circle class="st2" cx="294.19" cy="312.68" r="6.05"/>
  <g class="st12">
    <text class="st14" transform="translate(292.09 315.1)"><tspan x="0" y="0">A</tspan></text>
  </g>
  <circle class="st5" cx="262.93" cy="339.09" r="6.05"/>
  <circle class="st9" cx="262.93" cy="339.09" r="6.05"/>
  <g class="st12">
    <text class="st14" transform="translate(260.72 341.5)"><tspan x="0" y="0">U</tspan></text>
  </g>
  <circle class="st6" cx="225.45" cy="322.73" r="6.05"/>
  <circle class="st2" cx="225.45" cy="322.73" r="6.05"/>
  <g class="st12">
    <text class="st11" transform="translate(223.86 325.42) scale(.84 1)"><tspan x="0" y="0">A</tspan></text>
  </g>
  <circle class="st6" cx="223.57" cy="281.85" r="6.05"/>
  <circle class="st2" cx="223.57" cy="281.85" r="6.05"/>
  <g class="st12">
    <text class="st14" transform="translate(221.51 284.29)"><tspan x="0" y="0">A</tspan></text>
  </g>
  <circle class="st16" cx="259.43" cy="262.17" r="6.05"/>
  <circle class="st2" cx="259.43" cy="262.17" r="6.05"/>
  <g class="st12">
    <text class="st14" transform="translate(257.19 264.57)"><tspan x="0" y="0">U</tspan></text>
  </g>
  <circle class="st15" cx="236.86" cy="252.37" r="6.05"/>
  <circle class="st2" cx="236.86" cy="252.37" r="6.05"/>
  <g class="st12">
    <text class="st14" transform="translate(234.78 254.82)"><tspan x="0" y="0">C</tspan></text>
  </g>
  <circle class="st15" cx="214.37" cy="242.66" r="6.05"/>
  <circle class="st2" cx="214.37" cy="242.66" r="6.05"/>
  <g class="st12">
    <text class="st14" transform="translate(212.27 245.06)"><tspan x="0" y="0">C</tspan></text>
  </g>
  <circle class="st16" cx="191.88" cy="232.87" r="6.05"/>
  <circle class="st2" cx="191.88" cy="232.87" r="6.05"/>
  <g class="st12">
    <text class="st14" transform="translate(189.65 235.31)"><tspan x="0" y="0">U</tspan></text>
  </g>
  <circle class="st5" cx="169.4" cy="223.16" r="6.05"/>
  <circle class="st7" cx="169.4" cy="223.16" r="6.05"/>
  <g class="st12">
    <text class="st14" transform="translate(167.29 225.56)"><tspan x="0" y="0">A</tspan></text>
  </g>
  <circle class="st6" cx="146.82" cy="213.36" r="6.05"/>
  <circle class="st2" cx="146.82" cy="213.36" r="6.05"/>
  <g class="st12">
    <text class="st14" transform="translate(144.78 215.8)"><tspan x="0" y="0">A</tspan></text>
  </g>
  <circle class="st16" cx="120.59" cy="227.93" r="6.05"/>
  <circle class="st2" cx="120.59" cy="227.93" r="6.05"/>
  <g class="st12">
    <text class="st14" transform="translate(118.36 230.34)"><tspan x="0" y="0">U</tspan></text>
  </g>
  <circle class="st10" cx="90.6" cy="226.48" r="6.05"/>
  <circle class="st2" cx="90.6" cy="226.48" r="6.05"/>
  <g class="st12">
    <text class="st14" transform="translate(88.24 228.94)"><tspan x="0" y="0">G</tspan></text>
  </g>
  <circle class="st6" cx="65.81" cy="209.61" r="6.05"/>
  <circle class="st2" cx="65.81" cy="209.61" r="6.05"/>
  <g class="st12">
    <text class="st14" transform="translate(63.72 212.01)"><tspan x="0" y="0">A</tspan></text>
  </g>
  <circle class="st5" cx="53.55" cy="182.18" r="6.05"/>
  <circle class="st9" cx="53.55" cy="182.18" r="6.05"/>
  <g class="st12">
    <text class="st14" transform="translate(51.34 184.59)"><tspan x="0" y="0">U</tspan></text>
  </g>
  <circle class="st6" cx="57.55" cy="152.37" r="6.05"/>
  <circle class="st2" cx="57.55" cy="152.37" r="6.05"/>
  <g class="st12">
    <text class="st14" transform="translate(55.46 154.83)"><tspan x="0" y="0">A</tspan></text>
  </g>
  <circle class="st16" cx="76.55" cy="129.11" r="6.05"/>
  <circle class="st2" cx="76.55" cy="129.11" r="6.05"/>
  <g class="st12">
    <text class="st14" transform="translate(74.31 131.57)"><tspan x="0" y="0">U</tspan></text>
  </g>
  <circle class="st10" cx="104.91" cy="119.32" r="6.05"/>
  <circle class="st2" cx="104.91" cy="119.32" r="6.05"/>
  <g class="st12">
    <text class="st14" transform="translate(102.55 121.74)"><tspan x="0" y="0">G</tspan></text>
  </g>
  <circle class="st10" cx="134.22" cy="125.79" r="6.05"/>
  <circle class="st2" cx="134.22" cy="125.79" r="6.05"/>
  <g class="st12">
    <text class="st14" transform="translate(131.86 128.26)"><tspan x="0" y="0">G</tspan></text>
  </g>
  <circle class="st16" cx="155.77" cy="146.75" r="6.05"/>
  <circle class="st2" cx="155.77" cy="146.75" r="6.05"/>
  <g class="st12">
    <text class="st14" transform="translate(153.53 149.18)"><tspan x="0" y="0">U</tspan></text>
  </g>
  <circle class="st16" cx="163.09" cy="175.88" r="6.05"/>
  <circle class="st2" cx="163.09" cy="175.88" r="6.05"/>
  <g class="st12">
    <text class="st14" transform="translate(160.89 178.29)"><tspan x="0" y="0">U</tspan></text>
  </g>
  <circle class="st16" cx="185.58" cy="185.59" r="6.05"/>
  <circle class="st2" cx="185.58" cy="185.59" r="6.05"/>
  <g class="st12">
    <text class="st14" transform="translate(183.4 188.04)"><tspan x="0" y="0">U</tspan></text>
  </g>
  <circle class="st10" cx="208.15" cy="195.39" r="6.05"/>
  <circle class="st2" cx="208.15" cy="195.39" r="6.05"/>
  <g class="st12">
    <text class="st14" transform="translate(205.78 197.79)"><tspan x="0" y="0">G</tspan></text>
  </g>
  <circle class="st10" cx="230.64" cy="205.1" r="6.05"/>
  <circle class="st2" cx="230.64" cy="205.1" r="6.05"/>
  <g class="st12">
    <text class="st14" transform="translate(228.29 207.55)"><tspan x="0" y="0">G</tspan></text>
  </g>
  <circle class="st10" cx="253.13" cy="214.89" r="6.05"/>
  <circle class="st2" cx="253.13" cy="214.89" r="6.05"/>
  <g class="st12">
    <text class="st14" transform="translate(250.8 217.3)"><tspan x="0" y="0">G</tspan></text>
  </g>
  <circle class="st6" cx="275.62" cy="224.6" r="6.05" transform="translate(9.77 460.68) rotate(-80.78)"/>
  <circle class="st2" cx="275.62" cy="224.6" r="6.05" transform="translate(9.77 460.68) rotate(-80.78)"/>
  <g class="st12">
    <text class="st14" transform="translate(273.59 227.05)"><tspan x="0" y="0">A</tspan></text>
  </g>
  <circle class="st10" cx="248.19" cy="194.28" r="6.05"/>
  <circle class="st2" cx="248.19" cy="194.28" r="6.05"/>
  <g class="st12">
    <text class="st14" transform="translate(245.88 196.72)"><tspan x="0" y="0">G</tspan></text>
  </g>
  <circle class="st5" cx="241.38" cy="153.99" r="6.05"/>
  <circle class="st9" cx="241.38" cy="153.99" r="6.05"/>
  <g class="st12">
    <text class="st14" transform="translate(239.18 156.41)"><tspan x="0" y="0">U</tspan></text>
  </g>
  <circle class="st16" cx="257.31" cy="116.34" r="6.05"/>
  <circle class="st2" cx="257.31" cy="116.34" r="6.05"/>
  <g class="st12">
    <text class="st14" transform="translate(255.07 118.74)"><tspan x="0" y="0">U</tspan></text>
  </g>
  <circle class="st16" cx="290.95" cy="93.08" r="6.05"/>
  <circle class="st2" cx="290.95" cy="93.08" r="6.05"/>
  <g class="st12">
    <text class="st14" transform="translate(288.71 95.5)"><tspan x="0" y="0">U</tspan></text>
  </g>
  <circle class="st15" cx="331.75" cy="91.55" r="6.05"/>
  <circle class="st2" cx="331.75" cy="91.55" r="6.05"/>
  <g class="st12">
    <text class="st14" transform="translate(329.68 93.98)"><tspan x="0" y="0">C</tspan></text>
  </g>
  <circle class="st5" cx="367.11" cy="112.25" r="6.05"/>
  <circle class="st9" cx="367.11" cy="112.25" r="6.05"/>
  <g class="st12">
    <text class="st14" transform="translate(364.85 114.65)"><tspan x="0" y="0">U</tspan></text>
  </g>
  <circle class="st6" cx="385.76" cy="148.62" r="6.05"/>
  <circle class="st2" cx="385.76" cy="148.62" r="6.05"/>
  <g class="st12">
    <text class="st14" transform="translate(383.65 151.04)"><tspan x="0" y="0">A</tspan></text>
  </g>
  <circle class="st15" cx="381.93" cy="189.34" r="6.05"/>
  <circle class="st2" cx="381.93" cy="189.34" r="6.05"/>
  <g class="st12">
    <text class="st14" transform="translate(379.78 191.75)"><tspan x="0" y="0">C</tspan></text>
  </g>
  <circle class="st15" cx="356.8" cy="221.62" r="6.05"/>
  <circle class="st2" cx="356.8" cy="221.62" r="6.05"/>
  <g class="st12">
    <text class="st14" transform="translate(354.68 224.03)"><tspan x="0" y="0">C</tspan></text>
  </g>
  <circle class="st6" cx="380.05" cy="213.87" r="6.05"/>
  <circle class="st2" cx="380.05" cy="213.87" r="6.05"/>
  <g class="st12">
    <text class="st14" transform="translate(377.99 216.25)"><tspan x="0" y="0">A</tspan></text>
  </g>
  <circle class="st6" cx="403.31" cy="206.03" r="6.05"/>
  <circle class="st2" cx="403.31" cy="206.03" r="6.05"/>
  <g class="st12">
    <text class="st14" transform="translate(401.26 208.47)"><tspan x="0" y="0">A</tspan></text>
  </g>
  <circle class="st10" cx="426.56" cy="198.28" r="6.05"/>
  <circle class="st2" cx="426.56" cy="198.28" r="6.05"/>
  <g class="st12">
    <text class="st14" transform="translate(424.25 200.69)"><tspan x="0" y="0">G</tspan></text>
  </g>
  <circle class="st6" cx="449.84" cy="190.43" r="6.05"/>
  <circle class="st2" cx="449.84" cy="190.43" r="6.05"/>
  <g class="st12">
    <text class="st14" transform="translate(447.79 192.91)"><tspan x="0" y="0">A</tspan></text>
  </g>
  <circle class="st10" cx="473.16" cy="182.69" r="6.05"/>
  <circle class="st2" cx="473.16" cy="182.69" r="6.05"/>
  <g class="st12">
    <text class="st14" transform="translate(470.78 185.12)"><tspan x="0" y="0">G</tspan></text>
  </g>
  <circle class="st15" cx="486.96" cy="155.26" r="6.05"/>
  <circle class="st2" cx="486.96" cy="155.26" r="6.05"/>
  <g class="st12">
    <text class="st14" transform="translate(484.85 157.73)"><tspan x="0" y="0">C</tspan></text>
  </g>
  <circle class="st15" cx="514.81" cy="142.49" r="6.05"/>
  <circle class="st2" cx="514.81" cy="142.49" r="6.05"/>
  <g class="st12">
    <text class="st14" transform="translate(512.73 144.89)"><tspan x="0" y="0">C</tspan></text>
  </g>
  <circle class="st16" cx="544.63" cy="149.81" r="6.05"/>
  <circle class="st2" cx="544.63" cy="149.81" r="6.05"/>
  <g class="st12">
    <text class="st14" transform="translate(542.44 152.2)"><tspan x="0" y="0">U</tspan></text>
  </g>
  <circle class="st16" cx="563.45" cy="174.09" r="6.05"/>
  <circle class="st2" cx="563.45" cy="174.09" r="6.05"/>
  <g class="st12">
    <text class="st14" transform="translate(561.23 176.47)"><tspan x="0" y="0">U</tspan></text>
  </g>
  <circle class="st6" cx="563.03" cy="204.76" r="6.05"/>
  <circle class="st2" cx="563.03" cy="204.76" r="6.05"/>
  <g class="st12">
    <text class="st14" transform="translate(560.97 207.17)"><tspan x="0" y="0">A</tspan></text>
  </g>
  <circle class="st6" cx="543.6" cy="228.52" r="6.05"/>
  <circle class="st2" cx="543.6" cy="228.52" r="6.05"/>
  <g class="st12">
    <text class="st14" transform="translate(541.56 230.94)"><tspan x="0" y="0">A</tspan></text>
  </g>
  <circle class="st6" cx="513.62" cy="235.08" r="6.05"/>
  <circle class="st2" cx="513.62" cy="235.08" r="6.05"/>
  <g class="st12">
    <text class="st14" transform="translate(511.56 237.46)"><tspan x="0" y="0">A</tspan></text>
  </g>
  <circle class="st15" cx="486.11" cy="221.45" r="6.05"/>
  <circle class="st2" cx="486.11" cy="221.45" r="6.05"/>
  <g class="st12">
    <text class="st14" transform="translate(483.98 223.9)"><tspan x="0" y="0">C</tspan></text>
  </g>
  <circle class="st16" cx="462.85" cy="229.29" r="6.05"/>
  <circle class="st2" cx="462.85" cy="229.29" r="6.05"/>
  <g class="st12">
    <text class="st14" transform="translate(460.62 231.68)"><tspan x="0" y="0">U</tspan></text>
  </g>
  <circle class="st15" cx="439.6" cy="237.04" r="6.05"/>
  <circle class="st2" cx="439.6" cy="237.04" r="6.05"/>
  <g class="st12">
    <text class="st14" transform="translate(437.45 239.47)"><tspan x="0" y="0">C</tspan></text>
  </g>
  <circle class="st16" cx="416.34" cy="244.79" r="6.05"/>
  <circle class="st2" cx="416.34" cy="244.79" r="6.05"/>
  <g class="st12">
    <text class="st14" transform="translate(414.08 247.25)"><tspan x="0" y="0">U</tspan></text>
  </g>
  <circle class="st16" cx="393" cy="252.63" r="6.05"/>
  <circle class="st2" cx="393" cy="252.63" r="6.05"/>
  <g class="st12">
    <text class="st14" transform="translate(390.82 255.03)"><tspan x="0" y="0">U</tspan></text>
  </g>
  <circle class="st5" cx="369.75" cy="260.38" r="6.05"/>
  <circle class="st8" cx="369.75" cy="260.38" r="6.05"/>
  <g class="st12">
    <text class="st14" transform="translate(367.42 262.81)"><tspan x="0" y="0">G</tspan></text>
  </g>
  <circle class="st6" cx="396.58" cy="291.22" r="6.05"/>
  <circle class="st2" cx="396.58" cy="291.22" r="6.05"/>
  <g class="st12">
    <text class="st14" transform="translate(394.52 293.67)"><tspan x="0" y="0">A</tspan></text>
  </g>
  <circle class="st16" cx="373.41" cy="324.95" r="6.05"/>
  <circle class="st2" cx="373.41" cy="324.95" r="6.05"/>
  <g class="st12">
    <text class="st14" transform="translate(371.21 327.36)"><tspan x="0" y="0">U</tspan></text>
  </g>
  <circle class="st5" cx="334.99" cy="310.89" r="6.05"/>
  <circle class="st9" cx="334.99" cy="310.89" r="6.05"/>
  <g class="st12">
    <text class="st14" transform="translate(332.79 313.34)"><tspan x="0" y="0">U</tspan></text>
  </g>
  <circle class="st6" cx="336.1" cy="335.43" r="6.05"/>
  <circle class="st2" cx="336.1" cy="335.43" r="6.05"/>
  <g class="st12">
    <text class="st14" transform="translate(334 337.85)"><tspan x="0" y="0">A</tspan></text>
  </g>
  <circle class="st5" cx="337.12" cy="359.96" r="6.05"/>
  <circle class="st9" cx="337.12" cy="359.96" r="6.05"/>
  <g class="st12">
    <text class="st14" transform="translate(334.91 362.36)"><tspan x="0" y="0">U</tspan></text>
  </g>
  <circle class="st10" cx="338.14" cy="384.49" r="6.05"/>
  <circle class="st2" cx="338.14" cy="384.49" r="6.05"/>
  <g class="st12">
    <text class="st14" transform="translate(335.83 386.87)"><tspan x="0" y="0">G</tspan></text>
  </g>
  <circle class="st6" cx="339.25" cy="408.94" r="6.05"/>
  <circle class="st2" cx="339.25" cy="408.94" r="6.05"/>
  <g class="st12">
    <text class="st14" transform="translate(337.16 411.38)"><tspan x="0" y="0">A</tspan></text>
  </g>
  <circle class="st6" cx="340.27" cy="433.47" r="6.05"/>
  <circle class="st2" cx="340.27" cy="433.47" r="6.05"/>
  <g class="st12">
    <text class="st14" transform="translate(338.22 435.89)"><tspan x="0" y="0">A</tspan></text>
  </g>
  <circle class="st10" cx="341.38" cy="458" r="6.05"/>
  <circle class="st2" cx="341.38" cy="458" r="6.05"/>
  <g class="st12">
    <text class="st14" transform="translate(339 460.4)"><tspan x="0" y="0">G</tspan></text>
  </g>
  <circle class="st16" cx="342.4" cy="482.45" r="6.05"/>
  <circle class="st2" cx="342.4" cy="482.45" r="6.05"/>
  <g class="st12">
    <text class="st14" transform="translate(340.18 484.91)"><tspan x="0" y="0">U</tspan></text>
  </g>
  <circle class="st10" cx="343.42" cy="506.98" r="6.05"/>
  <circle class="st2" cx="343.42" cy="506.98" r="6.05"/>
  <g class="st12">
    <text class="st14" transform="translate(341.11 509.42)"><tspan x="0" y="0">G</tspan></text>
  </g>
  <line class="st0" x1="308.59" y1="506.98" x2="337.38" y2="505.79"/>
  <line class="st0" x1="308.76" y1="510.05" x2="337.46" y2="508.77"/>
  <line class="st0" x1="307.56" y1="483.98" x2="336.35" y2="482.79"/>
  <circle class="st4" cx="321.96" cy="483.39" r="3.32"/>
  <circle class="st0" cx="321.96" cy="483.39" r="3.32"/>
  <line class="st0" x1="306.46" y1="458" x2="335.25" y2="456.73"/>
  <line class="st0" x1="306.63" y1="460.99" x2="335.33" y2="459.79"/>
  <line class="st0" x1="305.52" y1="435" x2="334.23" y2="433.73"/>
  <line class="st0" x1="304.41" y1="410.47" x2="333.2" y2="409.19"/>
  <line class="st0" x1="303.3" y1="384.41" x2="332.1" y2="383.21"/>
  <line class="st0" x1="303.47" y1="387.47" x2="332.18" y2="386.2"/>
  <line class="st0" x1="302.28" y1="361.41" x2="331.07" y2="360.21"/>
  <line class="st0" x1="301.26" y1="336.96" x2="330.05" y2="335.68"/>
  <line class="st0" x1="300.24" y1="312.43" x2="328.94" y2="311.15"/>
  <line class="st0" x1="261.82" y1="256.55" x2="273.23" y2="230.23"/>
  <line class="st0" x1="237.88" y1="246.24" x2="249.38" y2="219.83"/>
  <line class="st0" x1="240.69" y1="247.43" x2="252.11" y2="221.03"/>
  <line class="st0" x1="215.4" y1="236.44" x2="226.81" y2="210.04"/>
  <line class="st0" x1="218.21" y1="237.72" x2="229.62" y2="211.31"/>
  <line class="st0" x1="194.27" y1="227.33" x2="205.68" y2="200.92"/>
  <circle class="st4" cx="199.98" cy="214.13" r="3.32"/>
  <circle class="st0" cx="199.98" cy="214.13" r="3.32"/>
  <line class="st0" x1="171.78" y1="217.62" x2="183.2" y2="191.21"/>
  <line class="st0" x1="149.29" y1="207.82" x2="160.71" y2="181.42"/>
  <line class="st0" x1="360.12" y1="226.9" x2="369.32" y2="254.16"/>
  <line class="st0" x1="357.31" y1="227.84" x2="366.42" y2="255.1"/>
  <line class="st0" x1="382.01" y1="219.58" x2="391.13" y2="246.84"/>
  <line class="st0" x1="405.27" y1="211.83" x2="414.38" y2="239.08"/>
  <line class="st0" x1="429.97" y1="203.56" x2="439.09" y2="230.82"/>
  <line class="st0" x1="427.07" y1="204.5" x2="436.19" y2="231.76"/>
  <line class="st0" x1="451.78" y1="196.24" x2="460.89" y2="223.5"/>
  <line class="st0" x1="476.48" y1="187.97" x2="485.59" y2="215.23"/>
  <line class="st0" x1="473.58" y1="188.91" x2="482.7" y2="216.26"/>
  <line class="st0" x1="266.25" y1="333.98" x2="382.44" y2="153.73"/>
  <line class="st1" x1="111.05" y1="118.13" x2="508.85" y2="140.61"/>
  <line class="st1" x1="110.88" y1="121.19" x2="508.68" y2="143.68"/>
  <line class="st1" x1="140.35" y1="124.85" x2="481.08" y2="153.31"/>
  <line class="st1" x1="140.09" y1="127.84" x2="480.82" y2="156.29"/>
  <line class="st1" x1="254.24" y1="192.57" x2="375.79" y2="188.06"/>
  <line class="st1" x1="254.32" y1="195.56" x2="375.88" y2="191.04"/>
  <line class="st0" x1="295.13" y1="331.17" x2="291.04" y2="99.13"/>
  <circle cx="293.08" cy="215.15" r="3.32"/>
  <circle class="st0" cx="293.08" cy="215.15" r="3.32"/>
  <line class="st0" x1="226.55" y1="316.77" x2="247.17" y2="200.24"/>
  <circle class="st4" cx="236.86" cy="258.51" r="6.05"/>
  <circle class="st0" cx="236.86" cy="258.51" r="6.05"/>
  <path class="st0" d="M240.52,261.66l-8.26-1.45,5.37-6.39,2.9,7.84h0Z"/>
  <line class="st0" x1="122.97" y1="222.39" x2="153.3" y2="152.28"/>
  <circle cx="138.13" cy="187.38" r="3.32"/>
  <circle class="st0" cx="138.13" cy="187.38" r="3.32"/>
  <line class="st0" x1="71.86" y1="209.95" x2="507.57" y2="234.66"/>
  <circle class="st4" cx="289.67" cy="222.3" r="5.11"/>
  <circle class="st0" cx="289.67" cy="222.3" r="5.11"/>
  <path class="st0" d="M286.95,224.77l.34-5.28,5.28.34-.34,5.28-5.28-.34Z"/>
  <line class="st0" x1="57.38" y1="177.5" x2="101.08" y2="124"/>
  <path d="M79.87,157.05l-6.98-5.71,9.11-4.09-2.13,9.8Z"/>
  <path class="st0" d="M79.87,157.05l-6.98-5.71,9.11-4.09-2.13,9.8Z"/>
  <line class="st0" x1="59.6" y1="182.69" x2="537.56" y2="227.93"/>
  <circle class="st4" cx="298.62" cy="205.35" r="5.11"/>
  <circle class="st0" cx="298.62" cy="205.35" r="5.11"/>
  <path class="st0" d="M295.72,207.74l.51-5.28,5.28.51-.51,5.28-5.28-.51Z"/>
  <line class="st0" x1="63.51" y1="153.05" x2="556.98" y2="204.16"/>
  <path class="st4" d="M307.05,181.25l.6-5.88,5.88.6-.6,5.88-5.88-.6Z"/>
  <path class="st0" d="M307.05,181.25l.6-5.88,5.88.6-.6,5.88-5.88-.6Z"/>
  <line class="st0" x1="110.79" y1="120.77" x2="537.73" y2="227.07"/>
  <circle cx="324.26" cy="173.92" r="3.32"/>
  <circle class="st0" cx="324.26" cy="173.92" r="3.32"/>
  <line class="st0" x1="140.01" y1="127.5" x2="507.83" y2="233.38"/>
  <path class="st4" d="M319.15,185.08l3.15-11.07,8.01,8.35-11.16,2.73h0Z"/>
  <path class="st0" d="M319.15,185.08l3.15-11.07,8.01,8.35-11.16,2.73h0Z"/>
  <circle class="st0" cx="323.92" cy="180.39" r="2.73"/>
  <line class="st0" x1="247.17" y1="152.11" x2="361.31" y2="114.12"/>
  <circle class="st4" cx="304.24" cy="133.12" r="5.11"/>
  <circle class="st0" cx="304.24" cy="133.12" r="5.11"/>
  <path class="st0" d="M302.54,136.44l-1.7-5.03,5.03-1.7,1.7,5.03-5.03,1.7Z"/>
  <line class="st0" x1="292.06" y1="99.04" x2="334.99" y2="329.46"/>
  <circle class="st4" cx="313.53" cy="214.3" r="6.05"/>
  <circle class="st0" cx="313.53" cy="214.3" r="6.05"/>
  <path d="M308.59,212.51l8.86-1.62-2.98,8.43-5.88-6.81h0Z"/>
  <line class="st0" x1="331.84" y1="97.6" x2="334.91" y2="304.85"/>
  <circle class="st4" cx="333.37" cy="201.26" r="6.05"/>
  <circle class="st0" cx="333.37" cy="201.26" r="6.05"/>
  <path d="M328.86,198.71l8.94-.17-4.34,7.84-4.6-7.67Z"/>
  <line class="st0" x1="516.77" y1="148.19" x2="541.73" y2="222.73"/>
  <path class="st4" d="M522.73,184.14l10.9-3.66-2.3,11.33-8.6-7.67Z"/>
  <path class="st0" d="M522.73,184.14l10.9-3.66-2.3,11.33-8.6-7.67Z"/>
  <circle cx="529.21" cy="185.5" r="3.32"/>
  <line class="st3" x1="293.51" y1="509.11" x2="287.46" y2="509.45"/>
  <g class="st12">
    <text class="st13" transform="translate(276.47 512.23)"><tspan x="0" y="0">1</tspan></text>
  </g>
  <line class="st3" x1="259.52" y1="347.52" x2="257.31" y2="353.14"/>
  <g class="st12">
    <text class="st13" transform="translate(250.04 363.97)"><tspan x="0" y="0">10</tspan></text>
  </g>
  <line class="st3" x1="87.96" y1="235.25" x2="86.26" y2="241.04"/>
  <g class="st12">
    <text class="st13" transform="translate(79.84 252.17)"><tspan x="0" y="0">20</tspan></text>
  </g>
  <line class="st3" x1="211.73" y1="187.04" x2="214.12" y2="181.5"/>
  <g class="st12">
    <text class="st13" transform="translate(213.91 175.56)"><tspan x="0" y="0">30</tspan></text>
  </g>
  <line class="st3" x1="392.23" y1="142.23" x2="396.49" y2="137.97"/>
  <g class="st12">
    <text class="st13" transform="translate(399.14 134.05)"><tspan x="0" y="0">40</tspan></text>
  </g>
  <line class="st3" x1="549.4" y1="142.06" x2="552.55" y2="136.87"/>
  <g class="st12">
    <text class="st13" transform="translate(553.49 131.55)"><tspan x="0" y="0">50</tspan></text>
  </g>
  <line class="st3" x1="375.03" y1="267.79" x2="378.52" y2="272.73"/>
  <g class="st12">
    <text class="st13" transform="translate(379.95 282.56)"><tspan x="0" y="0">60</tspan></text>
  </g>
  <line class="st3" x1="351.52" y1="482.11" x2="357.57" y2="481.86"/>
  <g class="st12">
    <text class="st13" transform="translate(362.76 483.87)"><tspan x="0" y="0">70</tspan></text>
  </g>
  <line class="st3" x1="351.35" y1="511.41" x2="356.63" y2="514.4"/>
  <g class="st12">
    <text class="st13" transform="translate(360.74 521.26)"><tspan x="0" y="0">71</tspan></text>
  </g>
</svg>